# Blender v2.79 (sub 0) OBJ File: 'gasper.blend'
# www.blender.org
mtllib gasper.mtl
o Plane_Plane.002
v -0.000641 0.005373 -0.001446
v -0.000641 -0.005267 -0.001446
v -0.000641 0.005373 -0.004598
v -0.000641 -0.005267 -0.004598
v 1.135685 0.041771 -0.035368
v 1.135685 -0.041771 -0.035368
v 1.135685 0.041771 -0.053930
v 1.135685 -0.041771 -0.053930
v 0.567843 -0.041771 -0.035368
v 0.567843 0.041771 -0.035368
v 0.567843 -0.041771 -0.053930
v 0.567843 0.041771 -0.053930
v 0.280797 0.036603 -0.031542
v 0.280797 -0.036497 -0.031542
v 0.280797 -0.036497 -0.046392
v 0.280797 0.036603 -0.046392
v 0.138836 0.027641 -0.020858
v 0.138836 -0.029625 -0.018427
v 0.138836 -0.021184 -0.030204
v 0.138836 0.019142 -0.030204
v -0.000641 0.005373 0.001453
v -0.000641 -0.005267 0.001453
v -0.000641 0.005373 0.004606
v -0.000641 -0.005267 0.004606
v 1.135685 0.041771 0.035376
v 1.135685 -0.041771 0.035376
v 1.135685 0.041771 0.053938
v 1.135685 -0.041771 0.053938
v 0.567843 -0.041771 0.035376
v 0.567843 0.041771 0.035376
v 0.567843 -0.041771 0.053938
v 0.567843 0.041771 0.053938
v 0.280797 0.036603 0.031550
v 0.280797 -0.036497 0.031550
v 0.280797 -0.036497 0.046400
v 0.280797 0.036603 0.046400
v 0.138836 0.027641 0.020866
v 0.138836 -0.029625 0.018434
v 0.138836 -0.021184 0.030212
v 0.138836 0.019142 0.030212
v 0.424320 -0.039134 -0.033455
v 0.424320 -0.039134 -0.050161
v 0.424320 0.039187 -0.050161
v 0.424320 0.039187 -0.033455
v 0.851764 -0.041771 -0.035368
v 0.851764 -0.041771 -0.053930
v 0.851764 0.041771 -0.053930
v 0.851764 0.041771 -0.035368
v 0.424320 -0.039134 0.033463
v 0.424320 -0.039134 0.050169
v 0.424320 0.039187 0.050169
v 0.424320 0.039187 0.033463
v 0.709803 -0.041771 0.035376
v 0.851764 -0.041771 0.035376
v 0.993725 -0.041771 0.035376
v 0.709803 -0.041771 0.053938
v 0.851764 -0.041771 0.053938
v 0.993725 -0.041771 0.053938
v 0.709803 0.041771 0.053938
v 0.851764 0.041771 0.053938
v 0.993725 0.041771 0.053938
v 0.993725 0.041771 0.035376
v 0.851764 0.041771 0.035376
v 0.709803 0.041771 0.035376
v 0.709803 0.041771 -0.035368
v 0.709803 -0.041771 -0.035368
v 0.709803 -0.041771 -0.053930
v 0.709803 0.041771 -0.053930
v 0.993725 -0.041771 -0.035368
v 0.993725 -0.041771 -0.053930
v 0.993725 0.041771 -0.053930
v 0.993725 0.041771 -0.035368
vn -1.0000 -0.0000 0.0000
vn 1.0000 0.0000 0.0000
vn -0.0000 0.0000 1.0000
vn 0.0000 -1.0000 0.0000
vn -0.0000 0.0000 -1.0000
vn -0.0000 1.0000 0.0000
vn -0.0180 0.9998 0.0000
vn -0.0263 0.0000 -0.9997
vn -0.0184 -0.9998 0.0000
vn 0.0133 0.0000 0.9999
vn 0.0750 0.0000 0.9972
vn -0.0928 -0.8093 -0.5800
vn -0.1133 0.0000 -0.9936
vn -0.1221 0.9925 0.0000
vn -0.1929 0.7260 -0.6601
vn -0.1806 0.0000 -0.9836
vn -0.1720 -0.9851 0.0000
vn 0.1311 0.0421 0.9905
vn -0.0263 0.0000 0.9997
vn 0.0133 0.0000 -0.9999
vn 0.0939 0.0422 -0.9947
vn -0.0928 -0.8093 0.5800
vn -0.1133 0.0000 0.9936
vn -0.0969 0.7364 0.6696
vn -0.1577 0.9875 0.0000
vn -0.1806 0.0000 0.9836
vn 0.1209 0.0000 -0.9927
vn 0.0939 0.0422 0.9947
vn -0.1072 -0.9942 0.0000
vn -0.0969 0.7364 -0.6696
vn -0.1958 -0.7971 -0.5713
vn 0.1209 0.0000 0.9927
vn 0.0750 0.0000 -0.9972
vn -0.1929 0.7260 0.6601
vn -0.1958 -0.7971 0.5713
vn 0.1311 0.0421 -0.9905
usemtl None
s off
f 3//1 2//1 1//1
f 6//2 7//2 5//2
f 69//3 5//3 72//3
f 70//4 6//4 69//4
f 71//5 8//5 70//5
f 72//6 7//6 71//6
f 43//7 10//7 12//7
f 42//8 12//8 11//8
f 42//9 9//9 41//9
f 41//10 10//10 44//10
f 17//11 14//11 13//11
f 19//12 14//12 18//12
f 20//13 15//13 19//13
f 20//14 13//14 16//14
f 3//15 17//15 20//15
f 4//16 20//16 19//16
f 4//17 18//17 2//17
f 1//18 18//18 17//18
f 22//1 23//1 21//1
f 27//2 26//2 25//2
f 25//5 55//5 62//5
f 26//4 58//4 55//4
f 28//3 61//3 58//3
f 27//6 62//6 61//6
f 51//7 30//7 52//7
f 50//19 32//19 51//19
f 29//9 50//9 49//9
f 30//20 49//20 52//20
f 37//21 34//21 38//21
f 34//22 39//22 38//22
f 35//23 40//23 39//23
f 40//24 33//24 37//24
f 23//25 37//25 21//25
f 24//26 40//26 23//26
f 38//17 24//17 22//17
f 21//27 38//27 22//27
f 14//10 44//10 13//10
f 15//9 41//9 14//9
f 15//8 43//8 42//8
f 16//7 44//7 43//7
f 65//6 47//6 68//6
f 68//5 46//5 67//5
f 67//4 45//4 66//4
f 66//3 48//3 65//3
f 52//20 34//20 33//20
f 49//9 35//9 34//9
f 35//19 51//19 36//19
f 36//7 52//7 33//7
f 59//6 30//6 32//6
f 60//6 64//6 59//6
f 61//6 63//6 60//6
f 56//3 32//3 31//3
f 57//3 59//3 56//3
f 58//3 60//3 57//3
f 53//4 31//4 29//4
f 54//4 56//4 53//4
f 55//4 57//4 54//4
f 64//5 29//5 30//5
f 63//5 53//5 64//5
f 62//5 54//5 63//5
f 9//3 65//3 10//3
f 11//4 66//4 9//4
f 12//5 67//5 11//5
f 10//6 68//6 12//6
f 48//6 71//6 47//6
f 47//5 70//5 46//5
f 46//4 69//4 45//4
f 45//3 72//3 48//3
f 3//1 4//1 2//1
f 6//2 8//2 7//2
f 69//3 6//3 5//3
f 70//4 8//4 6//4
f 71//5 7//5 8//5
f 72//6 5//6 7//6
f 43//7 44//7 10//7
f 42//8 43//8 12//8
f 42//9 11//9 9//9
f 41//10 9//10 10//10
f 17//28 18//28 14//28
f 19//29 15//29 14//29
f 20//13 16//13 15//13
f 20//30 17//30 13//30
f 3//25 1//25 17//25
f 4//16 3//16 20//16
f 4//31 19//31 18//31
f 1//32 2//32 18//32
f 22//1 24//1 23//1
f 27//2 28//2 26//2
f 25//5 26//5 55//5
f 26//4 28//4 58//4
f 28//3 27//3 61//3
f 27//6 25//6 62//6
f 51//7 32//7 30//7
f 50//19 31//19 32//19
f 29//9 31//9 50//9
f 30//20 29//20 49//20
f 37//33 33//33 34//33
f 34//29 35//29 39//29
f 35//23 36//23 40//23
f 40//14 36//14 33//14
f 23//34 40//34 37//34
f 24//26 39//26 40//26
f 38//35 39//35 24//35
f 21//36 37//36 38//36
f 14//10 41//10 44//10
f 15//9 42//9 41//9
f 15//8 16//8 43//8
f 16//7 13//7 44//7
f 65//6 48//6 47//6
f 68//5 47//5 46//5
f 67//4 46//4 45//4
f 66//3 45//3 48//3
f 52//20 49//20 34//20
f 49//9 50//9 35//9
f 35//19 50//19 51//19
f 36//7 51//7 52//7
f 59//6 64//6 30//6
f 60//6 63//6 64//6
f 61//6 62//6 63//6
f 56//3 59//3 32//3
f 57//3 60//3 59//3
f 58//3 61//3 60//3
f 53//4 56//4 31//4
f 54//4 57//4 56//4
f 55//4 58//4 57//4
f 64//5 53//5 29//5
f 63//5 54//5 53//5
f 62//5 55//5 54//5
f 9//3 66//3 65//3
f 11//4 67//4 66//4
f 12//5 68//5 67//5
f 10//6 65//6 68//6
f 48//6 72//6 71//6
f 47//5 71//5 70//5
f 46//4 70//4 69//4
f 45//3 69//3 72//3
