# Blender v2.79 (sub 0) OBJ File: ''
# www.blender.org
mtllib untitled.mtl
o liver
v -0.979259 2.235120 2.612450
v -1.444960 2.547220 2.039061
v -0.481040 2.877970 1.942430
v -0.642848 2.345419 2.572411
v 0.775631 3.149520 1.898970
v -1.234240 2.798150 1.497510
v -0.386844 3.373540 1.274871
v -0.598176 3.755140 -0.017132
v -0.254557 3.914320 0.273388
v -0.201405 4.200790 -0.563662
v -0.362644 4.419350 -0.635038
v 0.366573 4.314050 -0.918722
v 0.433111 4.091070 0.644568
v 0.503617 3.862200 1.038681
v 1.607860 3.845760 0.806179
v 1.803310 4.053420 0.161387
v 1.687330 4.176970 -0.443582
v 1.183700 4.238430 -0.926493
v -0.526793 4.480440 -0.634047
v -0.711019 3.671210 -0.076863
v -1.487820 3.462690 -0.602932
v -1.009210 3.194660 0.546449
v -1.580430 3.116330 0.201246
v -1.470620 4.556860 -0.764355
v -1.555830 3.337490 -0.981816
v -2.000090 2.961290 0.004580
v -2.752450 2.442700 0.090256
v -2.617140 2.610510 0.328871
v -3.024500 2.075600 1.001100
v -3.138610 1.823870 0.817236
v -2.892260 2.315060 -0.151115
v -3.291970 1.622810 0.608249
v -3.231290 1.703640 1.001360
v -3.389840 1.496830 0.815130
v -3.061680 1.914620 1.224990
v -3.417200 1.183600 1.760130
v -3.154080 1.377870 1.886140
v -3.854840 0.866525 1.597390
v -3.608640 0.746535 2.337350
v -4.045150 0.588905 2.043460
v -2.993540 0.961926 2.571930
v -2.360880 1.959950 2.058120
v -2.207510 1.456920 2.622190
v -2.551620 2.337340 1.621230
v -2.675100 2.476200 1.314180
v -1.327190 2.060300 2.612260
v -1.697880 2.455150 2.072941
v -1.771100 2.797600 1.636261
v -1.900810 2.769000 1.667341
v -2.021160 2.994250 1.206460
v -1.869550 3.034240 1.136531
v -1.951410 3.069200 0.634274
v -2.665790 2.601250 0.826129
v -4.546260 0.370815 1.221810
v -3.877740 0.893007 0.422477
v -3.666300 1.069010 0.114659
v -3.284710 1.748850 -0.740466
v -2.961480 1.882920 -1.435410
v -2.268450 2.800340 -0.902427
v -2.057020 3.137420 -1.197569
v -3.542860 1.200220 -1.299690
v -4.166400 0.321424 -0.381803
v -4.404300 0.217888 0.120653
v -2.203000 3.193780 -1.611420
v -2.959170 1.940320 -1.647510
v -3.507760 2.036140 -1.608470
v -3.119050 3.318480 -1.692849
v -2.123900 4.800380 -0.648840
v -2.090600 4.743330 -0.813430
v -3.015830 4.772560 -0.504023
v -3.810220 3.510810 -1.263649
v -4.136310 2.230500 -1.177860
v -4.173190 1.457000 -0.988098
v -4.524280 0.447799 -0.043859
v -4.530370 1.455330 -0.236559
v -4.529940 2.513800 -0.481344
v -4.285010 3.786300 -0.667437
v 0.269475 4.685330 -0.715978
v 1.293720 4.577120 -0.699485
v -0.214014 4.652180 -0.684455
v 1.510080 4.612350 -0.347366
v 1.356520 4.727720 -0.304727
v 1.196990 4.838390 0.498858
v 1.551670 4.594670 0.369887
v 1.405850 4.444300 0.973398
v 0.623638 4.539440 1.677201
v 0.625253 3.549410 2.113870
v -0.161726 4.529389 1.804421
v -0.223497 3.559510 2.456321
v -0.868473 3.562700 2.462400
v -0.764326 4.502950 1.807021
v -0.949013 4.497320 1.811051
v -1.058700 3.554990 2.447721
v -1.096000 3.139509 2.566520
v -1.706720 2.663690 2.728580
v -1.752730 1.782380 2.656250
v -1.641910 3.550240 2.385170
v -1.591130 4.563190 1.741801
v -2.317310 4.935720 1.249191
v -2.314980 4.591229 1.754381
v -2.510580 3.486799 2.218730
v -2.460960 2.596980 2.569800
v -2.245010 1.625280 2.716970
v -2.988260 1.269359 2.699860
v -3.142730 2.480170 2.405281
v -3.157710 3.409520 2.080690
v -2.842240 4.530159 1.630311
v -2.592120 5.019850 0.911119
v -3.755720 0.924324 2.401770
v -3.982950 2.307670 2.137201
v -3.971520 3.319280 1.784721
v -3.703170 4.388180 1.187581
v -2.964590 4.975810 0.298677
v -4.113670 0.760947 2.136530
v -4.381430 2.170850 1.747420
v -4.357960 3.153270 1.343791
v -3.958680 4.289760 0.843612
v -3.060820 4.918020 0.097544
v -4.679280 0.574139 1.135950
v -4.550610 1.844700 0.750916
v -4.600430 2.870890 0.380944
v -4.326910 4.011060 -0.065163
v 0.454310 5.068180 0.153532
v 0.605440 5.041750 0.340065
v -1.709220 4.552040 -0.980985
v -1.834580 3.248000 -1.302209
v -1.831150 4.699090 -0.322721
v -1.813560 5.157170 0.662231
v -0.784062 4.974500 0.263674
v -1.537750 4.627770 -0.421262
v -0.443867 5.027890 0.133755
v -0.034590 4.999930 0.069336
v 0.253078 5.010170 1.122311
v -0.097701 4.953410 1.181271
v -0.674762 4.895640 1.178761
v -0.817242 4.906540 1.185991
v -1.205680 4.941950 1.131211
v -1.620430 5.122820 0.907986
v -0.499531 5.045810 0.672109
vn 0.2077 -0.7784 -0.5924
vn 0.1813 -0.7735 -0.6073
vn 0.1459 -0.7737 -0.6166
vn 0.2803 -0.9079 -0.3116
vn 0.3851 -0.7662 -0.5145
vn 0.4733 -0.8208 -0.3198
vn 0.6050 -0.7313 -0.3149
vn 0.5650 -0.7910 -0.2348
vn -0.4069 -0.5407 -0.7363
vn -0.3733 -0.5252 -0.7647
vn 0.1056 -0.9838 -0.1448
vn 0.3773 -0.8833 -0.2783
vn 0.4605 -0.7293 -0.5059
vn 0.3538 -0.8418 -0.4078
vn 0.2176 -0.7167 -0.6625
vn 0.1538 -0.8036 -0.5749
vn -0.1391 -0.7838 -0.6053
vn -0.1147 -0.8678 -0.4834
vn -0.1465 -0.9278 -0.3432
vn -0.0912 -0.9790 -0.1824
vn -0.0219 -0.9944 -0.1037
vn -0.0926 -0.9863 -0.1367
vn -0.2340 -0.6165 -0.7518
vn 0.6682 -0.5191 -0.5330
vn 0.4719 -0.7947 -0.3818
vn 0.3273 -0.8810 -0.3417
vn 0.0659 -0.5760 -0.8148
vn 0.5794 -0.1279 -0.8049
vn 0.9857 -0.0397 -0.1638
vn 0.4534 -0.8364 -0.3080
vn 0.7462 -0.6603 0.0843
vn 0.7875 -0.6162 -0.0132
vn 0.8849 -0.4590 0.0793
vn 0.7736 -0.6224 -0.1189
vn 0.8276 -0.5566 -0.0718
vn 0.7938 -0.6081 0.0025
vn 0.7922 -0.6102 0.0032
vn 0.7845 -0.6201 -0.0100
vn 0.9313 -0.3509 -0.0976
vn 0.8419 -0.5186 -0.1492
vn 0.6606 -0.6253 -0.4154
vn 0.8443 -0.5155 -0.1464
vn 0.6255 -0.7458 -0.2291
vn 0.6311 -0.7047 -0.3243
vn 0.4949 -0.8166 -0.2971
vn 0.6567 -0.5668 -0.4975
vn 0.4422 -0.7795 -0.4436
vn 0.5762 -0.6320 -0.5182
vn 0.4286 -0.6133 -0.6635
vn 0.5257 -0.5167 -0.6758
vn 0.7444 -0.5655 -0.3550
vn 0.7490 -0.4364 -0.4986
vn 0.8169 -0.5240 -0.2411
vn 0.3422 -0.6803 -0.6482
vn 0.1782 -0.7316 -0.6581
vn -0.1166 -0.8831 -0.4545
vn 0.1916 -0.7565 -0.6253
vn 0.0246 -0.7846 -0.6195
vn 0.4504 -0.5828 -0.6763
vn 0.4334 -0.5797 -0.6900
vn 0.5078 -0.7142 -0.4817
vn 0.4789 -0.7114 -0.5143
vn 0.0913 -0.8929 -0.4408
vn 0.0306 -0.8948 -0.4453
vn -0.1047 -0.9066 -0.4087
vn -0.1079 -0.9083 -0.4042
vn 0.1233 -0.9884 -0.0889
vn 0.1325 -0.9912 0.0056
vn 0.2845 -0.9483 0.1405
vn 0.5548 -0.8311 0.0388
vn 0.5319 -0.8405 0.1029
vn 0.8348 -0.5459 0.0715
vn 0.7577 -0.6464 -0.0902
vn 0.6569 -0.7168 -0.2338
vn 0.5930 -0.8046 -0.0297
vn 0.7867 -0.6167 -0.0292
vn 0.7326 -0.6700 0.1201
vn 0.8144 -0.5794 0.0324
vn 0.8458 -0.5315 -0.0451
vn 0.8426 -0.5366 -0.0456
vn 0.7006 -0.6869 0.1934
vn 0.7309 -0.6578 0.1819
vn 0.8155 -0.5743 -0.0718
vn 0.8899 -0.4549 0.0355
vn 0.8249 -0.5649 0.0196
vn 0.7639 -0.6229 0.1685
vn 0.7242 -0.6576 0.2074
vn 0.7329 -0.6545 0.1854
vn 0.7906 -0.5041 -0.3475
vn 0.8508 -0.5095 -0.1286
vn 0.7333 -0.6583 -0.1702
vn -0.1256 -0.3391 -0.9323
vn -0.0596 0.0646 -0.9961
vn 0.0762 -0.0885 -0.9932
vn 0.9395 0.1408 -0.3122
vn -0.9777 0.0293 -0.2080
vn -0.1433 0.6325 -0.7612
vn -0.2827 0.6191 -0.7327
vn -0.5055 0.0968 -0.8574
vn -0.5456 0.0831 -0.8339
vn -0.5320 -0.4013 -0.7456
vn -0.6346 -0.6406 -0.4324
vn -0.7066 -0.3366 -0.6224
vn -0.8997 -0.0873 -0.4278
vn -0.9014 -0.0622 -0.4285
vn -0.8835 -0.1052 -0.4565
vn -0.8253 0.1742 -0.5372
vn -0.7686 0.0547 -0.6374
vn -0.4215 0.6476 -0.6348
vn 0.1443 0.5033 -0.8520
vn 0.6385 -0.7454 -0.1915
vn 0.0367 0.4863 -0.8730
vn 0.0705 0.5395 -0.8390
vn -0.2809 0.4024 -0.8713
vn -0.0521 -0.1754 -0.9831
vn 0.7544 0.4188 -0.5054
vn 0.6873 0.2370 -0.6866
vn 0.5660 0.8244 -0.0012
vn 0.5979 0.8014 -0.0149
vn 0.8998 0.4343 -0.0415
vn 0.9145 0.3933 -0.0950
vn 0.9299 0.2347 0.2832
vn 0.8915 0.2761 0.3592
vn 0.4778 0.7676 0.4272
vn 0.6131 0.7190 0.3273
vn 0.8235 0.0048 0.5674
vn 0.7673 0.0813 0.6361
vn 0.6572 0.3051 0.6892
vn 0.1416 0.3997 0.9057
vn 0.3265 0.5129 0.7940
vn 0.3734 -0.0404 0.9268
vn 0.5245 -0.2415 0.8164
vn 0.0099 0.1115 0.9937
vn 0.0982 0.0611 0.9933
vn -0.0216 0.5733 0.8191
vn 0.0106 0.5573 0.8302
vn 0.0010 0.5598 0.8287
vn -0.0861 0.5761 0.8128
vn 0.2686 -0.0167 0.9631
vn 0.1598 -0.0890 0.9831
vn -0.0360 0.3633 0.9310
vn -0.1046 0.2821 0.9537
vn -0.0943 0.5371 0.8382
vn -0.0315 0.5621 0.8265
vn 0.0418 0.8256 0.5628
vn 0.0309 0.3827 0.9233
vn -0.1966 0.5327 0.8232
vn -0.2009 0.3498 0.9150
vn -0.2226 0.3662 0.9035
vn 0.4604 -0.5967 -0.6573
vn 0.3961 -0.5896 -0.7039
vn -0.0244 0.0476 0.9986
vn 0.2800 0.0847 0.9562
vn 0.2217 -0.4404 0.8700
vn 0.1617 -0.3815 0.9101
vn -0.0853 0.1306 0.9878
vn -0.2617 0.1965 0.9449
vn -0.2752 0.3395 0.8994
vn -0.2339 0.3172 0.9190
vn -0.2369 0.4119 0.8799
vn -0.2537 0.4213 0.8707
vn -0.2226 0.8050 0.5499
vn -0.3099 0.8326 0.4591
vn -0.2141 -0.3721 0.9031
vn -0.1456 -0.4413 0.8855
vn -0.4202 0.1635 0.8926
vn -0.3249 0.1259 0.9373
vn -0.3457 0.3044 0.8876
vn -0.3551 0.3112 0.8815
vn -0.3501 0.4325 0.8309
vn -0.4571 0.5185 0.7227
vn -0.3603 0.8246 0.4362
vn -0.4440 0.8717 0.2073
vn -0.3227 -0.5469 0.7726
vn -0.3230 -0.5466 0.7726
vn -0.6096 0.0512 0.7911
vn -0.7084 0.0596 0.7033
vn -0.7197 0.2357 0.6530
vn -0.7727 0.2569 0.5805
vn -0.7471 0.4572 0.4826
vn -0.7696 0.4636 0.4390
vn -0.5108 0.8487 0.1366
vn -0.5573 0.8299 0.0282
vn -0.6427 -0.5465 0.5370
vn -0.8021 -0.3089 0.5111
vn -0.8680 -0.0280 0.4959
vn -0.9831 0.1366 0.1222
vn -0.9867 0.0814 0.1409
vn -0.9716 0.0371 0.2338
vn -0.9187 0.3760 0.1211
vn -0.9075 0.3228 0.2687
vn -0.5149 0.8556 -0.0537
vn -0.6756 0.7035 -0.2206
vn -0.5540 0.7666 -0.3246
vn -0.9769 0.1689 -0.1310
vn -0.9730 0.1741 -0.1516
vn -0.9971 -0.0168 -0.0745
vn -0.9988 -0.0489 -0.0012
vn -0.9998 -0.0093 -0.0168
vn -0.9889 0.0589 -0.1362
vn -0.8664 -0.4956 -0.0608
vn -0.8306 -0.5560 -0.0299
vn 0.4868 0.7876 -0.3779
vn -0.0676 -0.1657 -0.9839
vn 0.5903 -0.7846 -0.1898
vn 0.5390 -0.8411 -0.0445
vn 0.2095 -0.9725 -0.1018
vn 0.5698 -0.7885 0.2314
vn 0.6398 -0.7677 0.0354
vn 0.5658 -0.8243 -0.0211
vn 0.2453 -0.4335 0.8671
vn 0.0689 0.1643 0.9840
vn -0.1996 -0.0698 0.9774
vn -0.5989 -0.2552 -0.7590
vn -0.4950 -0.1847 -0.8491
vn 0.7623 -0.6017 0.2385
vn 0.7968 -0.5889 -0.1357
vn 0.1553 0.9145 -0.3736
vn 0.3015 0.9471 -0.1101
vn 0.2953 0.8909 -0.3450
vn 0.2969 0.9192 -0.2585
vn -0.2999 0.2160 -0.9292
vn -0.5116 0.2516 -0.8216
vn 0.6663 0.1174 -0.7364
vn 0.7434 0.0667 -0.6655
vn 0.5605 -0.7833 -0.2688
vn 0.5990 -0.7999 -0.0353
vn -0.0390 -0.6443 -0.7638
vn 0.0161 0.9589 0.2834
vn 0.1201 0.8993 -0.4204
vn -0.0761 0.9674 -0.2415
vn -0.0117 0.8972 -0.4414
vn 0.0780 0.9034 -0.4216
vn -0.2187 0.9462 -0.2384
vn -0.3242 0.7864 -0.5257
vn 0.1335 0.8839 -0.4482
vn -0.0038 0.9084 -0.4182
vn -0.4813 0.7375 -0.4738
vn -0.0608 0.9182 -0.3914
vn -0.0886 0.9123 -0.3998
vn 0.1021 0.9022 -0.4190
vn 0.3393 0.9386 -0.0619
vn 0.5615 0.7771 0.2843
vn 0.2228 0.9136 0.3402
vn -0.0400 0.8280 0.5593
vn 0.0886 0.7880 0.6093
vn -0.0874 0.8503 0.5190
vn -0.0339 0.8279 0.5599
vn 0.0914 0.8242 0.5589
vn -0.0143 0.8488 0.5285
vn 0.0029 0.8490 0.5284
vn 0.0261 0.8338 0.5514
vn 0.0553 0.8236 0.5645
vn 0.0538 0.8330 0.5507
vn -0.1022 0.9710 0.2160
vn -0.0990 0.9438 0.3153
vn -0.1646 0.9859 0.0292
vn 0.0839 0.9701 -0.2278
vn -0.0770 0.9678 -0.2398
vn -0.1737 0.9835 -0.0507
vn 0.0640 0.9976 -0.0266
vn -0.1096 0.9812 -0.1592
vn 0.0369 0.9932 0.1108
vn 0.0183 0.9987 0.0485
vn -0.1111 0.9587 0.2617
vn -0.0975 0.9629 0.2517
vn 0.0882 0.9463 0.3110
vn 0.0466 0.9565 0.2880
vn 0.1526 0.8872 0.4354
vn 0.0837 0.9938 0.0732
vn 0.5453 -0.7910 0.2775
vn -0.0852 0.2810 0.9559
vn 0.3462 0.9380 -0.0194
vn 0.1802 0.9697 -0.1651
usemtl None
s off
f 1//1 2//1 3//1
f 3//2 4//2 1//2
f 3//3 5//3 4//3
f 3//4 2//4 6//4
f 6//5 7//5 3//5
f 7//6 6//6 8//6
f 8//7 9//7 7//7
f 9//8 8//8 10//8
f 10//9 8//9 11//9
f 11//10 12//10 10//10
f 10//11 12//11 13//11
f 13//12 9//12 10//12
f 9//13 13//13 14//13
f 14//14 7//14 9//14
f 7//15 14//15 5//15
f 5//16 3//16 7//16
f 5//17 14//17 15//17
f 13//18 15//18 14//18
f 16//19 15//19 13//19
f 17//20 16//20 13//20
f 18//21 17//21 13//21
f 12//22 18//22 13//22
f 19//23 11//23 8//23
f 8//24 20//24 19//24
f 21//25 20//25 22//25
f 22//26 23//26 21//26
f 24//27 19//27 20//27
f 20//28 21//28 24//28
f 25//29 24//29 21//29
f 21//30 23//30 26//30
f 21//31 26//31 25//31
f 27//32 28//32 29//32
f 29//33 30//33 27//33
f 31//34 27//34 30//34
f 30//35 32//35 31//35
f 32//36 30//36 33//36
f 33//37 34//37 32//37
f 35//38 33//38 30//38
f 30//39 29//39 35//39
f 36//40 33//40 35//40
f 35//41 37//41 36//41
f 34//42 33//42 36//42
f 36//43 38//43 34//43
f 38//44 36//44 39//44
f 39//45 40//45 38//45
f 36//46 37//46 41//46
f 41//47 39//47 36//47
f 41//48 37//48 42//48
f 42//49 43//49 41//49
f 44//50 42//50 37//50
f 37//51 35//51 44//51
f 45//52 44//52 35//52
f 35//53 29//53 45//53
f 2//54 1//54 46//54
f 46//55 47//55 2//55
f 2//56 48//56 6//56
f 48//57 2//57 47//57
f 47//58 49//58 48//58
f 49//59 47//59 42//59
f 42//60 44//60 49//60
f 50//61 49//61 44//61
f 44//62 45//62 50//62
f 51//63 48//63 49//63
f 49//64 50//64 51//64
f 6//65 48//65 51//65
f 51//66 22//66 6//66
f 22//67 51//67 52//67
f 52//68 23//68 22//68
f 52//69 26//69 23//69
f 52//70 53//70 28//70
f 28//71 26//71 52//71
f 29//72 28//72 53//72
f 8//73 6//73 22//73
f 22//74 20//74 8//74
f 38//75 54//75 55//75
f 55//76 34//76 38//76
f 34//77 55//77 56//77
f 56//78 32//78 34//78
f 32//79 56//79 57//79
f 57//80 31//80 32//80
f 31//81 57//81 58//81
f 58//82 59//82 31//82
f 58//83 60//83 59//83
f 61//84 57//84 56//84
f 56//85 62//85 61//85
f 62//86 56//86 55//86
f 55//87 63//87 62//87
f 55//88 54//88 63//88
f 64//89 60//89 58//89
f 58//90 65//90 64//90
f 58//91 61//91 65//91
f 61//92 66//92 65//92
f 64//93 65//93 66//93
f 66//94 67//94 64//94
f 60//95 64//95 68//95
f 68//96 69//96 60//96
f 70//97 68//97 67//97
f 67//98 71//98 70//98
f 71//99 67//99 66//99
f 66//100 72//100 71//100
f 61//101 62//101 73//101
f 62//102 63//102 74//102
f 73//103 62//103 74//103
f 74//104 75//104 73//104
f 72//105 73//105 75//105
f 75//106 76//106 72//106
f 71//107 72//107 76//107
f 76//108 77//108 71//108
f 71//109 77//109 70//109
f 67//110 68//110 64//110
f 54//111 38//111 40//111
f 18//112 12//112 78//112
f 78//113 79//113 18//113
f 78//114 12//114 11//114
f 11//115 80//115 78//115
f 79//116 81//116 17//116
f 17//117 18//117 79//117
f 82//118 83//118 84//118
f 84//119 81//119 82//119
f 81//120 84//120 16//120
f 16//121 17//121 81//121
f 84//122 85//122 15//122
f 15//123 16//123 84//123
f 83//124 86//124 85//124
f 85//125 84//125 83//125
f 85//126 87//126 5//126
f 5//127 15//127 85//127
f 87//128 85//128 86//128
f 87//129 86//129 88//129
f 88//130 89//130 87//130
f 89//131 4//131 87//131
f 4//132 5//132 87//132
f 89//133 90//133 1//133
f 1//134 4//134 89//134
f 88//135 91//135 90//135
f 90//136 89//136 88//136
f 91//137 92//137 93//137
f 93//138 90//138 91//138
f 46//139 94//139 95//139
f 95//140 96//140 46//140
f 97//141 95//141 94//141
f 94//142 93//142 97//142
f 98//143 97//143 93//143
f 93//144 92//144 98//144
f 99//145 100//145 98//145
f 98//146 100//146 101//146
f 101//147 97//147 98//147
f 97//148 101//148 102//148
f 102//149 95//149 97//149
f 43//150 42//150 47//150
f 47//151 46//151 43//151
f 94//152 46//152 1//152
f 1//153 90//153 94//153
f 41//154 43//154 103//154
f 103//155 104//155 41//155
f 104//156 103//156 102//156
f 102//157 105//157 104//157
f 105//158 102//158 101//158
f 101//159 106//159 105//159
f 106//160 101//160 100//160
f 100//161 107//161 106//161
f 107//162 100//162 99//162
f 99//163 108//163 107//163
f 39//164 41//164 104//164
f 104//165 109//165 39//165
f 109//166 104//166 105//166
f 105//167 110//167 109//167
f 110//168 105//168 106//168
f 106//169 111//169 110//169
f 111//170 106//170 107//170
f 107//171 112//171 111//171
f 112//172 107//172 108//172
f 108//173 113//173 112//173
f 40//174 39//174 109//174
f 109//175 114//175 40//175
f 114//176 109//176 110//176
f 110//177 115//177 114//177
f 115//178 110//178 111//178
f 111//179 116//179 115//179
f 116//180 111//180 112//180
f 112//181 117//181 116//181
f 117//182 112//182 113//182
f 113//183 118//183 117//183
f 54//184 40//184 114//184
f 114//185 119//185 54//185
f 119//186 114//186 115//186
f 115//187 120//187 119//187
f 120//188 115//188 116//188
f 116//189 121//189 120//189
f 121//190 116//190 117//190
f 117//191 122//191 121//191
f 70//192 122//192 117//192
f 117//193 118//193 70//193
f 70//194 77//194 122//194
f 122//195 77//195 76//195
f 76//196 121//196 122//196
f 121//197 76//197 75//197
f 75//198 120//198 121//198
f 120//199 75//199 74//199
f 74//200 119//200 120//200
f 119//201 74//201 63//201
f 63//202 54//202 119//202
f 82//203 81//203 79//203
f 11//204 19//204 80//204
f 50//205 45//205 53//205
f 53//206 52//206 50//206
f 50//207 52//207 51//207
f 27//208 26//208 28//208
f 27//209 31//209 59//209
f 59//210 26//210 27//210
f 43//211 96//211 103//211
f 102//212 103//212 96//212
f 96//213 95//213 102//213
f 72//214 66//214 61//214
f 61//215 73//215 72//215
f 58//216 57//216 61//216
f 29//217 53//217 45//217
f 82//218 79//218 123//218
f 123//219 124//219 82//219
f 24//220 125//220 69//220
f 69//221 68//221 24//221
f 60//222 69//222 125//222
f 125//223 126//223 60//223
f 126//224 125//224 24//224
f 24//225 25//225 126//225
f 59//226 126//226 25//226
f 25//227 26//227 59//227
f 60//228 126//228 59//228
f 127//229 68//229 70//229
f 70//230 128//230 127//230
f 113//231 128//231 118//231
f 128//232 129//232 130//232
f 130//233 127//233 128//233
f 129//234 24//234 130//234
f 129//235 131//235 19//235
f 19//236 24//236 129//236
f 131//237 132//237 80//237
f 80//238 19//238 131//238
f 132//239 123//239 78//239
f 78//240 80//240 132//240
f 123//241 79//241 78//241
f 124//242 83//242 82//242
f 124//243 133//243 86//243
f 86//244 83//244 124//244
f 133//245 134//245 88//245
f 88//246 86//246 133//246
f 134//247 135//247 91//247
f 91//248 88//248 134//248
f 135//249 136//249 92//249
f 92//250 91//250 135//250
f 136//251 137//251 98//251
f 98//252 92//252 136//252
f 137//253 138//253 99//253
f 99//254 98//254 137//254
f 138//255 128//255 108//255
f 108//256 99//256 138//256
f 128//257 113//257 108//257
f 139//258 129//258 128//258
f 70//259 118//259 128//259
f 139//260 131//260 129//260
f 139//261 132//261 131//261
f 139//262 123//262 132//262
f 139//263 124//263 123//263
f 139//264 133//264 124//264
f 139//265 134//265 133//265
f 139//266 135//266 134//266
f 139//267 136//267 135//267
f 139//268 137//268 136//268
f 139//269 138//269 137//269
f 139//270 128//270 138//270
f 43//271 46//271 96//271
f 94//272 90//272 93//272
f 24//273 68//273 127//273
f 127//274 130//274 24//274
